<?xml version="1.0" encoding="utf-8"?>
<!-- Generator: Adobe Illustrator 13.0.0, SVG Export Plug-In . SVG Version: 6.00 Build 14948)  -->
<!DOCTYPE svg PUBLIC "-//W3C//DTD SVG 1.0//EN" "http://www.w3.org/TR/2001/REC-SVG-20010904/DTD/svg10.dtd">
<svg version="1.0" id="Layer_1" xmlns="http://www.w3.org/2000/svg" xmlns:xlink="http://www.w3.org/1999/xlink" x="0px" y="0px"
	 width="1460.606px" height="794.621px" viewBox="0 0 1460.606 794.621" enable-background="new 0 0 1460.606 794.621"
	 xml:space="preserve">
<g>
	<path fill="#080B09" d="M59.993,794.162h8.64l-1.64,0.459h-12.74l-1.58-0.51h7.36C60.023,794.121,60.003,794.142,59.993,794.162z
		 M35.324,783.992l-5.665-1.854l-2.366,0.773h-15.13c-1.325,0-2.561-0.508-3.648-1.381H7.503L0,783.992H35.324z"/>
</g>
<g>
	<g>
		<g>
			<line fill="none" x1="227.668" y1="43.315" x2="797.64" y2="43.315"/>
			<g>
				<path fill="#121413" d="M742.035,21.941h46.744c-1.896,2.474-4.15,3.966-6.592,3.966h-37.799l0.014,0.028H585.059l0.071-0.146
					h-21.916l-3.289-2.154h-2.085l-16.504,9.453h14.668l4.294,2.44c-0.373,0.937-0.774,1.778-1.189,2.558h0.211l1.48,0.858h-2.181
					c-0.328,0.544-0.667,1.032-1.017,1.464h17.314l1.05-0.6h21.855c2.661-0.982,4.656-3.057,5.231-5.576l-1.093-0.712h1.219
					l0.045-0.78l2.951-1.425l-2.822-1.846h6.654l5.597-2.704h35.315c2.975,0,5.601,1.273,7.205,3.22h6.468
					c2.14,0,4.064,2.789,5.399,7.181h-1.464l0.674-0.376h-12.151l-4.005,2.3l-1.795,1.033h-3.294l-20,9.683
					c0,4.219-3.95,7.669-8.833,7.669H588.46l-1.405,0.802h-53.887l0.045,0.774l-15.439,7.472l-22.62,10.94
					c0,5.055-4.739,9.167-10.569,9.167H406.5h-78.041c-4.523,0-8.363-2.468-9.875-5.918h-40.42l-48.447-31.713h-2.049
					c3.116-10.283,7.597-16.774,12.61-16.774h190.792l-8.778-5.745h-3.857l-5.707-3.73h-12.777h-25.118h-21.586
					c-0.68,0-1.324-0.269-1.92-0.724l-0.234,0.034H231.417l17.563-11.489h83.654c-0.31-0.651-0.597-1.392-0.858-2.21h16.336
					l0.021-0.146h7.523l1.51-0.864h13.802l5.328-3.041h24.357l-6.08,3.472h15.401c-1.494-1.952-2.873-4.218-4.064-6.833h12.465
					h15.971h191.717C627.152,0.354,628.432,0,629.809,0h104.396c3.906,0,7.066,2.727,7.066,6.115l-8.298,4.022h60.417
					c1.595,1.75,3.045,3.994,4.251,6.665H644.809c0.248,0.348,0.484,0.735,0.695,1.178h36.036h53.886
					C737.871,17.98,740.131,19.456,742.035,21.941z M494.29,42.793h-41.747l5.878-3.849h-11.214c0.999,1.711,1.931,3.719,2.79,5.975
					h17.799l-8.673,4.971h20.686l-0.005-0.084L494.29,42.793z M511.22,13.728h-29.824c-1.694,0-3.309,0.976-4.805,2.676l1.488,0.858
					h-2.217c-0.551,0.735-1.077,1.61-1.588,2.552h27.639L511.22,13.728z M584.297,16.802c1.87-4.101,4.241-7.242,6.926-9.021H444.4
					l-0.244,0.718h122.06l-6.766,3.876h18.053l-10.684,6.121h21.6l0.751-0.432h-2.949c0.217-0.471,0.46-0.892,0.722-1.262H584.297z
					 M656.35,26.597h78.731c-0.504,1.088-1.077,2.036-1.696,2.844h-72.296C659.337,29.441,657.714,28.375,656.35,26.597z
					 M705.711,31.567l10.728,6.143h-24.286l-10.714-6.143H705.711z"/>
			</g>
		</g>
	</g>
	<g>
		<g>
			<line fill="none" x1="227.668" y1="179.508" x2="797.64" y2="179.508"/>
			<g>
				<path fill="#121413" d="M600.791,202.429c0.36,0,0.695,0.206,0.979,0.516h-21.993l0.271-0.516H600.791z M797.64,202.917h-56.203
					c-3.336-3.657-7.147-5.767-11.216-5.767h-11.437l2.746,1.569h-3.477l-2.756-1.569h-53.407l8.908,5.098h-88.304l7.793-5.098
					h-4.993l-19.397,11.098h-18.751l5.983,3.425h2.376c0.306-0.963,0.728-1.544,1.198-1.544h19.521c0.489,0,0.927,0.616,1.236,1.647
					h-7.081l-5.409,3.116h-11.253l-2.546-1.675l-4.896,2.372h-30.271l-0.152,0.013l-2.356,1.351
					c-0.185,0.327-0.299,0.689-0.299,1.081l-3.94,1.906h-11.228c-1.394,0-2.534-0.888-2.759-2.034h-10.464l-7.548-4.944h-58.596
					c-3.992,0-7.584-4.919-10.198-12.773l0.991-0.644h32.823l7.17-4.688h1.813l-12.117-7.932h-43.525l-1.037,0.593l-6.669,3.81
					h-80.282h-48.375l-31.585-20.652h18.433c-0.074-0.342-0.123-0.694-0.123-1.057l23.537-11.382c0-3.116,2.923-5.666,6.528-5.666
					h94.939l4.568-2.213h-45.195c-0.828-1.097-1.592-2.374-2.256-3.82l-6.268,3.586h-45.092l-11.073-7.235h68.81l-6.303,3.606
					h55.351l1.916-0.928c0-2.163,2.021-3.888,4.507-3.888h66.505c2.484,0,4.493,1.725,4.493,3.888l-1.916,0.928h4.153l11.333-7.418
					h99.082l36.695,21.014h11.243l-5.625,3.219l5.624,3.219h2.962l-0.706,2.112h38.781c-3.695,4.841-8.086,7.701-12.837,7.701
					h-24.95c-3.567,6.556-8.303,10.583-13.537,10.583h-97.423l-1.036,0.593h115.875l7.279-4.763h23.179l12.333-8.063h76.587
					l22.417,12.826h9.812C787.159,187.518,793.339,193.466,797.64,202.917z M340.874,170.676l-8.374-5.485h-38.16
					c-3.534,0-6.406,2.455-6.52,5.485H340.874z M388.848,157.31h-9.853l0.108,0.928l-2.131,1.031h8.466L388.848,157.31z
					 M451.379,154.221h-16.458c0.837-1.109,1.609-2.396,2.292-3.862H402.55c-2.485,0-4.506,1.75-4.506,3.913l-1.019,0.49h35.926
					l-10.74,6.154h18.94L451.379,154.221z M455.236,151.697h-6.512l-2.042-1.338h-0.751l5.679,3.712L455.236,151.697z"/>
			</g>
		</g>
	</g>
	<g>
		<g>
			<line fill="none" x1="227.668" y1="315.702" x2="797.64" y2="315.702"/>
			<g>
				<path fill="#121413" d="M797.64,316.255H594.501l-0.643,0.368h-11.672l-4.692,2.684h-29.453l-2.466,1.188h-6.891
					c-0.242,0.666-0.504,1.266-0.777,1.822h32.531c3.717,0,6.728,2.622,6.728,5.836l-6.329,3.052h-7.352
					c-3.707,0-6.718,2.622-6.718,5.838l-2.132,1.032c1.016,1.454,1.957,3.106,2.797,4.948h-9.197l9.259,5.304h-3.983l-9.189-5.267
					l-5.423,2.625h-65.109l-4.034,2.642h-40.059l2.003-1.313h-8.24l-6.106-3.992h-89.804c3.215-7.046,7.823-11.49,12.964-11.49
					h37.896c-0.598-1.164-1.148-2.524-1.625-4.096h0.993l-0.655,0.43h3.039c-0.468-1.442-0.745-3.154-0.745-4.998l0.073-1.454
					h-18.885l1.405-0.92h-3.586l1.098-0.718h-24.543l3.498,2.008h-1.239l-2.642-1.516h-20.583l-2.314,1.516h-12.473l8.714-5.714
					h20.583l1.109,0.636l3.511-2.296h-45.786l-9.186,6.002h-2.212l0.215,0.634h-48.508l25.889-16.935l-0.729-2.174h1.423l8.541-5.59
					l15.189-9.936l-14.514-9.5h0.604l4.71,3.092h18.996l0.031-0.02h18.887l4.829-2.764h24.638l-4.833,2.764h35.738l22.958,13.148
					l6.264,3.584h95.258l-14.741,8.438l0.045,0.122h-0.257l-10.341,5.92h-39.376l0.105,0.06h12.36l4.184,2.396h9.057
					c1.591,0,2.996,1.616,3.824,4.076h46.056l0.84,0.492h-46.762c0.177,0.602,0.316,1.246,0.422,1.926h4.847h8.192
					c-0.461,1.494-0.983,2.784-1.567,3.788c-0.962,1.68-2.079,2.642-3.267,2.642h-8.404l-0.351,1.29h27.525l-0.757-0.43h1.658
					c-0.221,0.728-0.46,1.402-0.709,2.048h22.304l0.012-0.204l10.134-4.908l-8.516-4.882h2.786l-0.635-0.368h15.601l-12.334-8.07
					h18.264l-14.167-9.278h-0.984c1.464-4.812,3.563-7.864,5.909-7.864h34.816l7.937-4.546h73.801c3.533,0,6.718,4.608,8.93,11.878
					h-26.763l0.179,0.532h-1.632l-2.251,1.29h30.291l0.421-0.204h15.207c0.45,0,0.875,0.08,1.276,0.204h44.539
					c1.303,0,2.552,0.656,3.719,1.844H774.2l-2.489,1.208h17.562C792.54,307.858,795.428,311.42,797.64,316.255z M753.341,336.703
					l31.047,17.789h-4.291l-9.155-5.242h-39.521l-4.829,2.764H695.5l-3.786,2.478h-43.152l3.784-2.478h-8.085l-2.929-1.926
					l-17.173-11.222l-14.756-9.667h-1.485c2.253-7.394,5.479-12.064,9.073-12.064h142.831c3.594,0,6.83,4.67,9.073,12.064h-2.468
					l-2.765,1.596l-0.255,0.146c-0.238,0.736-0.504,1.386-0.8,1.902c-0.533,0.942-1.157,1.476-1.823,1.476h-3.279L753.341,336.703z"
					/>
			</g>
		</g>
	</g>
	<g>
		<g>
			<line fill="none" x1="227.668" y1="451.895" x2="797.64" y2="451.895"/>
			<g>
				<path fill="#121413" d="M452.859,474.204h-1.934l0.884-0.5h-42.032l15.658-8.975h20.303
					C448.563,464.729,451.098,468.397,452.859,474.204z M334.219,466.92h5.701l-1.082,0.605h-8.406l-1.043-0.673h4.856
					L334.219,466.92z M785.927,448.641h11.542c-1.465,1.914-3.2,3.048-5.087,3.048h-11.78l-3.621,2.073h4.599
					c3.201,0,6.064,2.771,8.063,7.152h-55.189l9.799,5.608h1.84c-1.675,5.516-4.078,9.001-6.764,9.001h-23.006l1.403,0.804h-13.025
					c0.881,0.284,1.511,1.014,1.511,1.874l-5.094,2.47h-8.054c-0.616,1.564-2.321,2.69-4.332,2.69h-11.332
					c-1.024,1.913-2.228,3.036-3.521,3.036h-78.165c-1.905,0-3.621-2.417-4.842-6.256h-26.744l19.61-12.828h29.31l7.101-4.645h1.281
					c0.894-0.409,1.913-0.646,2.995-0.646h0.093l-0.318-0.605h75.083l0.27-0.503h-52.904c1.233-2.701,2.797-4.786,4.565-5.99
					h-11.263l-2.561-1.676h-0.375l-0.572-0.376l-8.092,4.637h-8.775l-7.397,4.237l-3.801,2.179h-45.721h-27.549l-15.199-9.952
					h-1.508c-0.848,0-1.644-0.64-2.346-1.737l-2.319,1.119c0,1.054-0.976,1.899-2.19,1.899h-4.793
					c-0.159,0.564-0.433,1.09-0.816,1.544c-0.911,1.082-2.369,1.794-4.025,1.794h-36.885h-15.484l9.842,5.634H350.749l7.743-5.067
					h-41.804l0.07-0.316h-85.916c-1.168-1.516-2.237-3.3-3.174-5.344h32.043l19.557-12.802h35.902l6.213,3.564h3.47l-9.993-5.728
					h23.771l13.813-9.04h9.455l-0.343-0.225h16.846l1.543-0.886h-19.062c-1.293,0-2.342-0.909-2.342-2.03l3.417-1.65h5.049
					l-2.99-1.953h10.894l9.356-5.357h14.193c0.873,0,1.663,1.102,2.228,2.863h3.163c1.293,0,2.336,0.911,2.336,2.032l-2.204,1.07
					h-2.553c-1.293,0-2.343,0.896-2.343,2.018l-0.137,0.067h4.532l6.704,4.38l-3.767,2.159l3.86,2.209h0.125l5.358-3.075h24.507
					l-7.472,4.281c-0.156,0.746-0.361,1.436-0.613,2.055h27.726c0.19-0.612,0.361-1.25,0.484-1.941h14.682
					c1.105,0,2.125,0.728,2.954,1.941h12.38c-0.787,1.727-1.685,3.233-2.646,4.564h10.549l1.612-0.778h1.367l-1.129-0.738h27.98
					l1.352-0.885H516.87c-0.316,0-0.607-0.197-0.851-0.514h14.2l-0.203,0.343h8.778l7.578-3.669c0-3.01,2.817-5.45,6.295-5.45
					h18.763c1.208-1.212,2.565-1.913,4.008-1.913h55.842l1.141-0.555h8.836c0.605,0,1.153,0.212,1.552,0.555h37.392
					c2.525,0,4.795,2.104,6.432,5.462h104.151c2.719,0,5.153,3.538,6.855,9.119h-1.846L785.927,448.641z M317.942,453.499
					l-3.738-2.445l-1.561,1.021h-9.983c-0.874,0-1.689-0.67-2.407-1.822h-0.667l-4.951,3.247H317.942z M492.105,446.996
					l-6.901-4.517h-5.352c0.154,0.963,0.239,1.985,0.239,3.048c0,1.203-0.112,2.351-0.306,3.418h8.15
					C489.676,448.945,491.209,448.168,492.105,446.996z M681.248,434.322h-29.481c0.148,0.465,0.233,0.949,0.233,1.453l-2.122,1.027
					c-0.401,0.865-0.837,1.593-1.297,2.18h28.973C678.637,436.68,679.89,435.057,681.248,434.322z M686.586,476.29
					c-0.362-0.085-0.708-0.349-1.027-0.766h-42.416l3.782,2.165c0.838-0.855,2.086-1.399,3.484-1.399H686.586z"/>
			</g>
		</g>
	</g>
	<g>
		<g>
			<line fill="none" x1="227.668" y1="588.088" x2="797.64" y2="588.088"/>
			<g>
				<path fill="#121413" d="M483.324,609.975h1.624c-0.255,0.84-0.527,1.599-0.824,2.324l-3.322-1.912h3.265L483.324,609.975z
					 M743.076,600.561l-1.296,0.626h1.164c0.338,0,0.634,0.429,0.849,1.139h-4.839l0.107-0.066h-5.02l0.806-0.462h-3.064H727.9
					c-0.643,0-1.17,0.462-1.17,1.022l-1.641,0.79h-4.674c-0.643,0-1.171-0.444-1.171-1.005l1.104-0.544l3.107-1.5
					c0-0.561,0.528-1.022,1.171-1.022h1.278h16C742.548,599.539,743.076,600,743.076,600.561z M706.689,604.418h54.424l-1.072,0.61
					h-53.566L706.689,604.418z M797.64,589.3c0,4.996-2.019,9.035-4.517,9.035H731.73l0.184,0.576h-46.436l-2.49,1.435
					l-33.361,19.093h-38.819h-35.282l-7.938-5.194h-10.626l-1.146-0.742c0.54-1.583,1.138-2.98,1.777-4.204h-42.096
					c-1.875,0-3.437-2.632-3.825-6.148h-36.697c0.375,0.469,0.725,1.011,1.037,1.633h24.203l-2.745,1.582h-20.798
					c0.663,1.896,1.055,4.201,1.055,6.693c0,6.463-2.613,11.705-5.844,11.705H384.83c-3.231,0-5.844-5.242-5.844-11.705
					c0-1.901,0.231-3.69,0.633-5.276H367.75l4.211-2.753h-53.738c-1.066,0-2.079-0.448-3.001-1.236h-46.237l0.083-0.165h-37.879
					l8.649-5.672h-1.057l-1.163-0.758c1.97-5.787,4.649-9.398,7.625-9.398h33.342l-0.307-0.378h-1.405
					c-2.783,0-5.316-3.106-7.261-8.194h-41.945l34.202-22.389h38.233l1.36-0.891h74.273l9.3,5.324h40.417
					c0.998,3.313,2.794,5.557,4.863,5.557h22.513c0.527,1.055,1.028,2.234,1.493,3.527h44.226c1.047,0,2.043,0.19,2.947,0.528h3.746
					c0.661-1.474,1.468-2.367,2.352-2.439h-42.431c1.204-2.639,2.927-4.304,4.855-4.304h59.028l19.45-12.728h65.61l9.049,5.177
					h25.813c3.809,0,6.9,2.671,6.9,5.984l-10.973,5.309h41.499c-0.446,1.467-0.938,2.803-1.465,4.007h21.9
					c1.782,0,3.228,2.69,3.43,6.133h53.978c3.677,0,6.974,3.182,9.266,8.212h-164.4l0.592-1.173h-40.369l0.866,0.496
					c-1.343,3.346-3.065,5.406-4.946,5.406h-37.769c0.221,0.722,0.39,1.511,0.488,2.359h29.344l-0.142,0.28h16.752
					c1.082,0,2.062,0.876,2.771,2.291h0.601l-0.278,0.777c0.199,0.514,0.376,1.06,0.506,1.663h9.722
					c1.096-3.426,2.43-6.128,3.918-7.915h-21.072l0.04-0.13h21.146c1.226-1.422,2.55-2.243,3.947-2.243h128.533
					c0.625,0,1.239,0.161,1.836,0.462h20.864l0.786-0.512h4.083c0.554-0.387,1.063-0.963,1.498-1.715h22.818
					c1.962,0,3.619-2.521,4.245-6.034h13.239C795.621,580.249,797.64,584.304,797.64,589.3z M634.158,573.077h11.359l-5.202-2.979
					L634.158,573.077z M558.702,569.582l0.045,0.132h17.597c2.291,0,4.303-0.973,5.556-2.457h22.9c2.314,0,4.356-0.991,5.611-2.505
					h-17.82h-24.739l-7.377,4.83H558.702z M361.414,596.208c-2.692-0.114-5.011-1.462-6.208-3.413h-3.145l-0.288,0.164l3.965,2.276
					l-0.425,0.973H361.414z M461.895,601.369c-0.544-0.869-0.977-1.996-1.236-3.313h-43.712c0.999,0.847,1.921,1.97,2.754,3.313
					H461.895z M510.882,590.964h-20.906l9.009-5.902h-28.597c-0.373,1.258-1.047,2.111-1.828,2.111h-25.679
					c0.191-1.072,0.586-1.948,1.092-2.439h-9.838h-8.862l-0.346,0.658c-1.723,3.001-3.718,4.732-5.853,4.732h-16.98l-0.108,1.056
					l-4.434,2.144h1.085c0.141-0.275,0.307-0.446,0.488-0.446h10.519c0.18,0,0.347,0.171,0.488,0.446h50.372l0.119-0.858h47.944
					C509.431,592.465,510.229,591.909,510.882,590.964z M520.054,572.285h-13l-0.383,0.792h11.749L520.054,572.285z"/>
			</g>
		</g>
	</g>
	<g>
		<g>
			<line fill="none" x1="227.668" y1="724.282" x2="797.64" y2="724.282"/>
			<g>
				<path fill="#121413" d="M382.347,721.701l-0.518,0.341h-26.212l0.518-0.341H382.347z M797.64,717.049
					c-2.15,4.724-5.234,7.702-8.681,7.702h-38.815c0.836-1.105,1.609-2.383,2.284-3.859h-11.267l-1.167,1.69h-4.282l-2.079,1.19
					h-11.43l-13.634,7.802h-37.883c-0.661,0.665-1.405,1.05-2.194,1.05h-72.978c-2.352,0-4.318-3.318-4.795-7.731h-10.921h-5.219
					h-3.332c-0.445,1.604-1.288,2.695-2.271,2.695h-5.277l-3.255,1.858h-37.019c-1.771,4.022-3.974,6.425-6.364,6.425H496.98
					c-1.723,1.656-3.648,2.609-5.692,2.609h-67.218l19.738,11.306h2.062c-1.879,6.17-4.575,10.07-7.575,10.07H419.44l0.516,1.532
					h-48.155h-8.653c-0.446,0-0.808,0.313-0.808,0.709l-1.121,0.538h-3.213c-0.447,0-0.808-0.311-0.808-0.693l1.141-0.554h-40.105
					l0.523-1.563c-2.863-0.294-5.42-4.116-7.218-10.04h1.242l19.972-13.073c-1.953-1.496-3.692-3.864-5.08-6.897h60.08
					c-0.587-1.286-1.13-2.746-1.619-4.355h1.284l2.085-1.363h47.294l-14.16-9.261h40.214l0.252-0.313h-43.948l0.588-1.063h43.766
					l0.513,0.069c0.889-0.9,1.824-1.641,2.795-2.211l-1.561-0.892h-65.354l-14.563,8.338h-20.362
					c-1.132,1.521-2.386,2.369-3.708,2.369h-106.24c-2.681,0-5.078-3.474-6.751-8.979h1.112l2.726-1.784l-23.329-15.265h-1.12
					c1.709-5.617,4.163-9.179,6.9-9.179h108.595c2.737,0,5.191,3.562,6.9,9.179H348.2l-2.749,1.573h15.462l-10.882,6.23l7.354,4.211
					h17.665c1.432-1.789,3.115-2.837,4.927-2.837h31.771l8.271-5.404h19.695l9.448,5.404h39.813c2.633,0,4.991,2.184,6.694,5.674
					h112.408c0.424-0.279,0.864-0.427,1.315-0.427h71.73c1.176,0,2.266,1.009,3.2,2.724h5.686c1.378,0,2.593,0.615,3.304,1.546
					h32.186c1.3,0,2.5,1.213,3.498,3.249h14.267H797.64z"/>
			</g>
		</g>
	</g>
</g>
<g>
	<g>
		<g>
			<line fill="none" x1="890.636" y1="41.815" x2="1460.606" y2="41.815"/>
			<g>
				<path fill="#121413" d="M1098.496,31.24l0.226,0.135h-1.023l-0.233-0.135H1098.496z M1088.426,28.141l0.195,0.106h-18.409
					l0.173-0.106H1088.426z M1451.98,45.813h-22.188l-18.302,10.49h-6.293l-3.628,2.078h-7.907
					c-0.514,1.641-1.101,3.058-1.756,4.184c-1.129,1.973-2.438,3.116-3.839,3.116h-51.936c-0.204,1.085-0.709,2.082-1.426,2.934
					c-1.438,1.703-3.732,2.817-6.352,2.817h-58.215h-58.179c-2.391,0-4.527-0.923-5.974-2.379h-3.862
					c-1.628,0-3.109-0.538-4.233-1.414h-11.667l-1.102,0.721h-1.693l0.165,0.482h-3.943c-1.732,5.151-4.101,8.37-6.735,8.37h-52.759
					l-2.146,1.038h-29.977c-1.494,0-2.882-0.385-4.051-1.038h-22.645c-2.815,0-5.336-3.643-7.098-9.422h1.159l3.044-1.988h-34.609
					h-49.267c-3.176,0-5.75-5.148-5.75-11.501l0.009-0.329h-52.03c-2.95,0-5.592-3.84-7.436-9.89h1.219l-0.805,0.526h24.901
					l1.172-0.768h-8.033l-0.078-0.226h-0.223c-1.521,0-2.891-1.926-3.869-4.983h-21.321l15.64-10.249h32.081
					c-0.379-0.882-0.647-1.952-0.752-3.146h-58.657c2.04-3.102,4.568-4.969,7.331-4.969h51.888c0.6-1.679,1.577-2.784,2.685-2.784
					h39.082c1.249-3.337,2.887-5.374,4.69-5.374h82.066c1.97,0,3.749,2.463,5.026,6.382h24.898l-3.748-2.455h0.64l3.748,2.455
					h42.022l-8.17-5.345h23.791l0.369-0.241h38.203l0.417,0.241h28.583l11.874-7.767h32.251l3.629,2.079h79.941l4.261,2.437
					l-0.656,1.505h61.092c3.568,0,6.801,2.849,9.192,7.42h16.938l-9.129,5.224h-27.713l5.672,3.251h34.821
					c2.362,0,4.274,1.67,4.274,3.719l-9.4,4.545h-3.609c-0.81,1.399-1.744,2.211-2.742,2.211h-5.056l2.42,1.388h4.757
					C1448.963,39.16,1450.738,41.732,1451.98,45.813z M1029.28,32.146h-3.965l0.156,0.088h3.286L1029.28,32.146z M1105.7,49.967
					l-3.762-2.152h-37.082c0.634,1.849,1.005,4.081,1.005,6.485l-0.052,0.994c-0.11,2.528-0.625,4.822-1.412,6.615l12.424-8.135
					h-6.64c0.256-1.461,0.948-2.499,1.762-2.499h8.694l2-1.309H1105.7z M1109.853,49.967c-0.41-0.644-0.661-1.376-0.718-2.152h-3.92
					l3.76,2.152H1109.853z M1144.357,27.568h-22.185l-1.771-1.158h-38.627c-0.494,0.885-1.131,1.443-1.846,1.443h-9.234
					c0.203-0.271,0.383-0.57,0.541-0.917h-9.67l-2.342,1.34l-6.607,3.792h-8.613c0.138,0.712,0.221,1.479,0.221,2.288
					c0,0.576-0.051,1.126-0.123,1.655h16.324l2.366-1.144c0-1.911,1.784-3.445,3.974-3.445h46.264
					c0.802-0.415,1.528-1.2,2.138-2.258h26.455C1142.63,29.165,1143.561,28.564,1144.357,27.568z M1205.188,30.743h-23.985
					c0.928-1.417,1.95-2.599,3.042-3.522h-17.879c0.485,1.59,0.77,3.451,0.77,5.451c0,0.917-0.065,1.799-0.176,2.649h26.432
					l6.776-3.281h3.568C1204.202,31.546,1204.687,31.111,1205.188,30.743z M1220.105,48.974h-11.913l-0.205,0.497h11.691
					L1220.105,48.974z M1253.54,37.111h-21.418l-0.63,0.362h-2.348l-3.361,1.626h24.721L1253.54,37.111z M1277.304,20.147h-2.656
					l2.021,1.156c0.099-0.297,0.169-0.606,0.169-0.929L1277.304,20.147z M1343.385,22.344l1.71,0.979h26.334l-4.856-3.175h-64.865
					c0.104,0.306,0.178,0.626,0.178,0.964l-8.134,3.928h20.108l4.117-2.696H1343.385z M1373.505,38.452l0.279-0.135h-11.14
					l-8.286,5.418h-21.707l0.159,0.091h3.635l0.396,0.227h19.889c1.793,0,3.441,0.523,4.768,1.399h1.863
					c1.235-3.863,2.958-6.292,4.884-6.292h5.34L1373.505,38.452z M1437.778,39.16l-1.475-0.844h-16.473l1.473,0.844H1437.778z"/>
			</g>
		</g>
	</g>
	<g>
		<g>
			<line fill="none" x1="890.636" y1="178.008" x2="1460.606" y2="178.008"/>
			<g>
				<path fill="#121413" d="M1040.576,180.374l-2.178,1.249h-26.189h-14.577c-0.11,0.361-0.175,0.741-0.175,1.133l-2.175,1.049
					l1.502,0.861h-2.066l-0.558-0.319l-3.847,1.856h-2.922l-0.421,0.205c0,2.146-2.002,3.875-4.479,3.875h-33.065H916.37
					c-2.477,0-4.479-1.729-4.479-3.875l16.119-7.796c0-0.413,0.076-0.812,0.214-1.185h-0.069l-6.396,4.176h-31.122l22.36-14.631
					h51.379l0.784,0.448h58.533l-0.484-0.277h1.5l-0.342-0.192h11.866l-1.485-0.972h-47.354l0.311-0.202h-0.646
					c-0.128,0.15-0.266,0.245-0.411,0.245h-13.178c-0.147,0-0.285-0.095-0.413-0.245h-13.389c1.483-3.247,3.511-5.469,5.799-6.087
					h-23.706l0.464,0.31h-0.704c1.067-3.513,2.6-5.734,4.313-5.734h67.856c0.664,0,1.301,0.344,1.896,0.96h152.098
					c-2.339,5.126-5.691,8.361-9.435,8.361h-12.548l0.466,1.389h-27.94l-1.5,0.854l-4.38,2.508c1.21,0.1,2.158,0.965,2.158,2.041
					l-5.248,2.542h-0.093l0.354,0.202h-5.531l-0.936,0.536c-0.575,1.253-1.282,1.996-2.049,1.996h-1.437l-2.91,1.665h-23.349
					h-13.797l-2.098,1.015h-13.274L1040.576,180.374z M983.618,171.158h-11.93l6.23,3.566h1.549l3.729-1.804
					C983.196,172.293,983.349,171.698,983.618,171.158z M1460.606,172.91c-1.692,3.716-4.025,6.226-6.652,6.802h-1.469l-0.197,0.128
					h-28.619c-0.445,2.182-1.517,3.727-2.765,3.727h-44.4c-1.068,0-2.006-1.136-2.533-2.83h-9.159l-0.471,0.961
					c-0.656,1.131-1.409,1.793-2.216,1.793h-11.42l3.544,2.029h-1.868l-3.542-2.029h-7.581c-1.292,3.014-2.91,4.826-4.676,4.826
					h-69.359c0.738,1.047,1.419,2.244,2.027,3.577h-31.862c0.465,0.637,0.896,1.368,1.273,2.2h-8.783
					c-0.813,1.373-1.747,2.168-2.744,2.168h-3.907l-9.585,5.488h-41.923l-2.546-1.666h-45.299c-1.762,0-3.342-2.232-4.474-5.766
					h-24.646l1.256-0.823h-21.401l5.547-3.63h-15.675c-1.908,0-3.666-1.216-5.11-3.267h-19.076l12.521-8.19h51.005l0.748,0.428
					l4.671-3.056h13.525l0.357-0.233h2.61l0.407,0.233h20.367l7.9,4.518h2.405c-0.715-0.921-1.372-2.004-1.944-3.257h93.817
					l5.398-3.534h-10.109h-9.309c-0.598,0.947-1.758,1.59-3.095,1.59h-52.095c-1.949,0-3.528-1.367-3.528-3.054l7.757-3.748h7.367
					c-0.442-0.128-0.828-0.354-1.129-0.65h-18.838l14.997-9.814h34.454l5.512,3.156l3.437-1.662h10.46
					c1.447,0,2.621,1.016,2.621,2.275l-0.066,0.031h14.547l2.279-1.301h20.813l-2.275,1.301h5.73h54.699h1.848h0.588h15.602
					c0.939-0.708,1.537-1.75,1.537-2.915l6.252-3.033h17.833c2.467,0,4.464,1.73,4.464,3.876l-4.286,2.071h3.448l-6.381,3.652h2.846
					l-5.332,3.055h7.97l0.538,0.309h1.475c0.432,0,0.802,0.51,0.976,1.241c0.271-0.219,0.529-0.486,0.766-0.818l-3.983-2.282h5.046
					l0.362-1.462h11.276c1.034,0,1.971,0.816,2.663,2.14l7.262,4.16h9.825c0.695,0,1.335,0.48,1.843,1.282H1460.606z
					 M1241.087,162.679l-0.147-0.283l-0.589,0.283H1241.087z M1149.497,181.762h-1.592l0.279,0.16h1.068L1149.497,181.762z
					 M1271.562,165.285l-0.029-0.017l-0.03,0.017H1271.562z M1291.201,166.598l-3.852-2.519h-9.331l4.402,2.519H1291.201z"/>
			</g>
		</g>
	</g>
	<g>
		<g>
			<line fill="none" x1="890.636" y1="314.202" x2="1460.606" y2="314.202"/>
			<g>
				<g>
					<path fill="#121413" d="M1460.606,318.259c-1.906,4.18-4.538,7.017-7.497,7.672h-1.655l-0.221,0.139h-52.929l2.186,1.25
						h-21.718c-1.164,1.989-2.554,3.459-4.082,4.243h14.939h14.148c-0.786,2.577-1.701,4.788-2.716,6.542
						c-1.655,2.899-3.577,4.561-5.636,4.561h-126.09h-5.285c-2.146,0-4.145-1.828-5.848-4.958h-13.907
						c-0.471,0.206-0.95,0.32-1.44,0.32h-116.15c-1.004,0-1.972-0.457-2.885-1.289l-1.959,1.121h-34.344l-14.949-9.778h8.203
						l0.605-0.396h-9.129c-1.479,0-2.669-1.037-2.669-2.318l5.864-2.836h13.813l7.856-5.142h-3.518l0.603-0.396h3.522l11.19-7.321
						h8.733l3.122-1.511h-5.71l0.215,0.642h-0.877l0.404-0.229h-19.151l0.719-0.413h-1.08l-7.188,4.119l0.745,0.426h-1.491
						l-5.884,3.373h-24.819l-0.094,0.304h15.868c2.761,0,4.995,1.938,4.995,4.332l-17.992,8.711c0,2.379-2.234,4.332-4.995,4.332
						h-25.28l-0.293,0.167h-12.844c-0.651,3.042-2.16,5.172-3.921,5.172H948.57c-2.356,0-4.271-3.813-4.271-8.527l0.037-1.068
						h-14.421l-14.484-9.488h78.416l-0.019-0.366c0-3.966,1.61-7.185,3.593-7.185h6.596l1.226-0.803l-9.234-6.046h-7.053
						l-4.736,2.288h-87.207c-3.516,0-6.376-2.471-6.376-5.522l9.313-4.499h47.104c3.523,0,6.376-2.488,6.376-5.539l13.645-6.605
						h47.081c3.523,0,6.376,2.487,6.376,5.538l-1.453,0.7h17.828l7.078,4.058h-15.683c-0.233,0.19-0.487,0.305-0.754,0.305h-6.62
						l0.181-0.305h-14.829l4.482,2.943h55.373l4.712-2.699h2.186l3.481-1.999h37.425l-3.489,1.999h5.58l-2.078,1.19h6.021
						c0.497,0,0.977-0.061,1.435-0.168l-4.615-3.021h8.396c0.204-0.5,0.321-1.037,0.321-1.6l7.757-3.754h22.126
						c1.125,0,2.171,0.293,3.044,0.794h38.316c1.435,0,2.724,1.861,3.616,4.804h-20.555l-8.87,5.08h28.304l1.997-0.959h36.099
						c2.708,0,4.896,1.89,4.896,4.239l-4.131,1.999h19.813l0.591-0.338c0.293-0.593,0.579-1.214,0.851-1.891l1.464,0.84h5.849
						l0.49-0.718h20.481l0.027-0.456l3.882-1.878c0.482-0.919,0.862-2.057,1.09-3.34h12.471c0.86,0,1.66,0.514,2.329,1.388h10.736
						c3.119,0,5.651,2.197,5.651,4.896l-7.947,3.843h1.304c-0.411,0.9-0.876,1.679-1.388,2.351h-4.772l-2.082,1.007h10.714
						l7.47,4.269h54.667l-0.986,0.566h9.541l0.704-0.459h9.633l0.466,0.274l-0.089,0.185h12.513
						c-0.571,1.25-1.365,2.103-2.257,2.303h-0.496l-0.061,0.045h-34.055l-0.853,0.488H1460.606z M999.121,300.703h13.382
						l-7.131-4.668h-2.577c-1.005,0.98-1.621,2.266-1.621,3.676L999.121,300.703z M1193.792,319.466l3.311,2.164h1.246l1.958-1.281
						h-3.814c-0.935,0-1.706-0.587-1.859-1.366L1193.792,319.466z M1199.94,316.124h-12.801l0.453,0.259h11.576l-1.252,0.718
						L1199.94,316.124z M1193.385,319.698l1.167,0.667l-1.089-0.712L1193.385,319.698z M1219.353,308.085h-32.674l-0.376,0.183
						c0,0.153-0.16,0.291-0.351,0.291h-5.156c-0.19,0-0.351-0.137-0.351-0.291l0.37-0.183h-2.011c-1.542,0-2.916,0.62-3.812,1.586
						h0.876l0.399,0.228h39.332L1219.353,308.085z M1233.281,307.215h4.268l-0.077-1.585l0.021-0.45L1233.281,307.215z"/>
				</g>
			</g>
		</g>
	</g>
	<g>
		<g>
			<line fill="none" x1="890.636" y1="450.395" x2="1460.606" y2="450.395"/>
			<g>
				<path fill="#121413" d="M1011.513,466.682h-13.592l-0.366,0.21h-4.776h-4.344l-0.628-0.41h-27.005
					c0.708-2.212,1.696-3.602,2.797-3.602h45.052C1009.786,462.88,1010.805,464.349,1011.513,466.682z M1053.789,460.189
					l0.791,0.453h-7.661l0.695-0.453H1053.789z M1185.19,456.375l7.874,4.505h-46.109l0.696-0.455h-7.73l-0.001,0.026l-5.175,2.5
					h-14.758c-1.639,0-3.023-0.926-3.508-2.203h-46.342l0.338-0.673h-17.359l-6.236-4.081h12.896l5.117-2.929h14.085l2.027,1.329
					h16.97c0.649,0,1.216-0.637,1.569-1.608h-16.262h-20.339l4.831-3.164h-4.04c-0.256,0-0.502-0.119-0.736-0.323h-4.997
					c-0.332,0-0.604,0.235-0.604,0.524l-0.843,0.401h-2.408c-0.332,0-0.604-0.227-0.604-0.516l2.168-1.049
					c0-0.281,0.244-0.497,0.552-0.52l-0.036-0.065h5.94l-0.086-0.21h-2.878h-4.674l0.504,0.289h-7.844l-3.012,1.967h-0.83
					l0.083,0.235h-11.575l0.078,1.049l-0.022,0.358c-0.087,2.071-0.948,3.696-2.01,3.696h-12.805h-2.647l0.122,0.07h4.273
					l-0.397,0.228h26.115l-5.195,2.972l-0.905,0.516h5.931c0.734,0,1.324,1.188,1.324,2.648s-0.59,2.648-1.324,2.648h-19.696
					c-0.734,0-1.324-1.188-1.324-2.648l0.07-0.813h-31.698l1.361,0.778h-0.909l-1.362-0.778h-5.425
					c-0.337,0-0.661-0.161-0.967-0.445h-9.474l-1.875,1.224h-9.138l6.564-4.291h0.139l3.124-2.046h-5.342l0.274,0.157l1.678,0.962
					h-7.012l-2.883,1.651h-14.38l-4.302,2.466h-25.325l-9.285-6.084h-4.227l-12.346-8.084h54.832l-7.567,4.335h15.956l-0.439-0.289
					h0.074l0.442,0.289h4.914l0.504-0.289h0.651c0.282-0.285,0.695-0.472,1.162-0.472h22.772c0.853,0,1.543,0.603,1.543,1.337
					l-0.506,0.245h1.14l1.148-0.751h4.676l1.941-1.111h3.948c0.301-1.483,1.027-2.534,1.877-2.534h23.675l0.641-0.42h-7.954
					l0.039-0.113h8.089l0.936-0.611h2.062l5.346-3.496h4.37l1.67-1.093h30.691l0.764,0.437h7.8l-0.089-0.314h-2.457l2.293-1.502
					c0.041-1.534,0.67-2.755,1.451-2.755h2.754l1.027-0.673h2.375c0.438-1.234,1.001-2.064,1.627-2.297l-0.257-0.168h0.44l0.153,0.1
					l0.022-0.003h29.207c0.577-0.342,1.273-0.542,2.025-0.542h53.075c1.984,0,3.592,1.398,3.592,3.12l-2.731,1.32h0.621
					c-0.887,1.949-2.163,3.181-3.584,3.181h-3.622l-3.618,1.748c0,0.35-0.069,0.684-0.191,0.997h2.722l-2.92,1.678h-1.364
					c-0.539,0.281-1.169,0.445-1.844,0.445h-5.868l-5.479,3.138h30.156c0.741,0,1.421,0.224,1.957,0.596h8.492
					c2.04,0,3.692,1.433,3.692,3.207L1185.19,456.375z M1013.102,457.855l-1.017-0.664h-0.946l0.099,0.082l1.018,0.582H1013.102z
					 M1013.403,455.53l-0.122-0.07h-5.209l0.122,0.07H1013.403z M1107.028,453.213l0.274,0.857h1.035L1107.028,453.213z
					 M1104.852,451.789l-8.731-5.716h-0.544c0.293-0.96,0.632-1.788,1.005-2.464h-17.098l5.728,3.277h7.433l0.213,0.122h3.733
					c-0.211,0.696-0.465,1.273-0.746,1.712l2.792,1.601l2.561,1.468H1104.852z M1122.751,454.743h-15.31l-0.022-0.003l0.065,0.957
					c0,1.66-0.52,3.069-1.25,3.635h10.929l0.064-0.03c-0.376-0.448-0.601-0.998-0.601-1.595L1122.751,454.743z M1460.606,459.315
					c-1.245,2.735-3.042,4.466-5.039,4.466h-79.356c-2.002,0-3.793-1.73-5.043-4.466h29.358c0.313-0.251,0.689-0.443,1.109-0.553
					l-0.273-0.537l-3.288-1.883h-6.306l-0.359-0.235h-5.688c0.328-0.429,0.64-0.899,0.937-1.407h-6.491l-0.397,0.192
					c0,0.228-0.088,0.445-0.236,0.621l-0.408,0.313l1.068-0.515c0-0.148,0.14-0.271,0.314-0.271h4.628
					c0.175,0,0.314,0.122,0.314,0.271l-0.459,0.219l-0.668,0.323c0,0.148-0.145,0.271-0.315,0.271h-2.315h-2.313
					c-0.174,0-0.314-0.122-0.314-0.271l0.022-0.011c-0.164,0.073-0.35,0.116-0.547,0.116h-9.094h-4.111
					c-0.288,0.185-0.641,0.297-1.027,0.297h-12.822h-12.818c-0.961,0-1.734-0.673-1.734-1.503l3.053-1.478h-29.48l1.558,0.892
					h-1.521l-2.287-1.311h-5.798l0.277-0.551h-12.214c1.001,0.75,1.891,1.954,2.598,3.505h-18.477
					c-0.204,0.212-0.421,0.332-0.647,0.332h-8.811c-0.079,0.111-0.171,0.191-0.274,0.191h-2.567
					c-0.075,0.42-0.496,0.752-1.003,0.752h-15.029c-0.559,0-1.014-0.401-1.014-0.882l0.811-0.394h-40.313l0.68-1.276h-2.147
					l-0.303-0.026h-0.764h-9.483c-0.874,0-1.63-0.944-2.049-2.342c-0.215-0.717-0.346-1.548-0.346-2.448
					c0-0.559,0.062-1.093,0.148-1.599h26.913l-1.96-1.119h-30.73l-3.456,2.255h-0.831l0.083,0.244h-18.236l13.377-8.757h30.73
					l5.541,3.173h1.797c-0.138,0.299-0.3,0.546-0.475,0.757l5.984,3.427c0.225-0.024,0.441-0.103,0.645-0.242h-0.718
					c-0.621,0-1.119-0.438-1.119-0.97l2.456-1.189h0.673l0.18-0.769h7.009c0.478,0,0.922,0.284,1.296,0.769h2.891
					c0.562,0,1.019-0.358,1.102-0.82h-5.878l-5.712-3.741h17.816l-0.441-0.577h-16.016l8.736-5.716h20.067l6.104,3.496h5.688
					c0.091-0.162,0.146-0.342,0.146-0.534l1.972-0.952h5.624c0.773,0,1.407,0.542,1.407,1.216l-3.482,1.688
					c0.836,0.659,1.743,1.029,2.696,1.029h1.335l4.394-2.875h32.746l5.021,2.875h18.625c-1.171,1.53-2.561,2.438-4.063,2.438
					h-10.304l4.715,2.701h8.18c1.202,0,2.282,1.04,3.033,2.692h-7.551l1.649,0.943h5.814l-0.124,0.141h60.89l-0.181,0.358h15.004
					c0.262,0,0.511,0.143,0.743,0.394h7.25c-0.712,1.564-1.568,2.84-2.518,3.801h-7.818l-3.035,1.74h7.38l-0.307,0.891h35.303
					l-0.346-0.191H1450c-0.333,1.094-0.736,1.985-1.188,2.622H1460.606z M1264.69,446.982h0.584l2.925-1.914h-18.057l2.818-1.845
					h-8.142l-2.884,1.653h-0.086l0.007,0.061l-4.024,1.949c0,0.532-0.503,0.97-1.119,0.97h-5.117l0.018,0.097h7.499
					c1.049,0,1.896,0.733,1.896,1.643l-2.025,0.979h2.852h0.061h1.481l0.046,0.026h4.88l-0.044-0.026h0.097
					c-0.088,0.297-0.219,0.488-0.367,0.488h-3.759l0.319,0.184h-6.957l-0.416,0.202h30.091c-0.229-0.149-0.45-0.361-0.666-0.604
					h-3.838l0.151-0.428h-3.931l-5.485-3.138h11.292L1264.69,446.982z"/>
			</g>
		</g>
	</g>
	<g>
		<g>
			<line fill="none" x1="890.636" y1="586.588" x2="1460.606" y2="586.588"/>
			<g>
				<path fill="#121413" d="M1460.606,571.623h-40.756l-2.181,1.243l-26.926,15.418l4.94,2.828h-48.174l3.873,2.223h-23.304
					c-0.677,0-1.287-0.848-1.733-2.181l0.067-0.042h-5.354l2.288-1.497l-1.345-0.879h-14.075c-0.595,2.605-1.901,4.424-3.426,4.424
					h-10.612l-4.604,2.64h-64.171l-18.874-12.36h-56.011l-12.249-8.022h-4.517l2.26-1.478l-3.536-2.316h-9.904l-0.267,0.153
					c-1.197,3.61-2.834,5.863-4.663,5.863h-76.586c-1.94,0-3.663-2.486-4.873-6.453h0.772l11.004-7.189l-10.261-6.719h-39.372
					c-1.188-1.571-2.29-3.381-3.238-5.472h140.735l7.391-4.23h56.442c0.763,2.527,2.125,4.23,3.706,4.23h10.89h6.278
					c0.589,1.175,1.134,2.529,1.602,4.096h-10.139c-2.1,3.2-4.583,5.408-7.295,6.328l2.39,1.371h6.761
					c0.712,0,1.355,0.226,1.871,0.587h3.023l-2.022,1.32c0.073,0.226,0.125,0.46,0.125,0.707l-2.814,1.362l0.706,0.404h58.986
					l-1.104,0.631h42.853c1.391,0,2.71,0.902,3.9,2.508h14.564c1.767-5.538,4.241-9.027,6.998-9.027h112.798
					C1456.279,562.093,1458.83,565.781,1460.606,571.623z M1107.625,557.278h-69.253l3.834,2.508h11.91l1.268-0.83h44.146
					l1.449,0.83h2.269L1107.625,557.278z M1319.837,587.318l-7.359-4.812l-4.238,2.431l0.034,0.682l-0.105,1.699H1319.837z
					 M1244.888,602.71h64.203l-22.39,12.818h-79.802l-15.958-10.442h49.793L1244.888,602.71z M1127.013,585.402h19.804
					c-2.507,3.27-5.493,5.23-8.721,5.23h-51.063l-4.532,2.596h31.844c-1.09,2.418-2.354,4.511-3.729,6.299h-11.571
					c0.345,0.901,0.68,1.836,0.987,2.855h-33.531l-1.753,1.005h-19.018l-38.798,22.214h-83.835l-21.234-13.888h43.907l12.596-7.215
					h-7.048l-0.131-0.392h7.862l0.496-0.285h-68.91l32.865-21.494h17.732l-1.099-2.181h64.683c2.035,2.661,4.382,4.433,6.911,5.021
					l8.655-4.956h0.501c0.688-0.55,1.409-0.873,2.158-0.873h3.005c-0.275-0.418-0.54-0.864-0.771-1.371h75.9
					c-0.231,0.502-0.485,0.956-0.756,1.371h21.128C1123.641,579.338,1125.539,581.642,1127.013,585.402z"/>
			</g>
		</g>
	</g>
	<g>
		<g>
			<line fill="none" x1="890.636" y1="722.782" x2="1460.606" y2="722.782"/>
			<g>
				<path fill="#121413" d="M1460.606,729.057c-2.076,2.7-4.538,4.317-7.203,4.317h-7.91c-1.318,1.736-2.773,2.72-4.309,2.72
					h-42.581l-7.48,4.281h-63.19l-0.871-0.57h-36.613l-6.519-4.264h-1.16l12.466,8.159h-26.019c1.295-1.69,2.49-3.675,3.528-5.954
					h-7.783l-19.356,11.081h-47.967l-12.155-7.957h25.128l3.343-1.912l-2.111-1.212h-103.496c-1.152-1.516-2.227-3.268-3.187-5.255
					h-1.342l-10.53-6.891h-6.081c1.164,1.659,1.929,4.367,1.929,7.442c0,5.054-2.048,9.17-4.574,9.17h-68.133
					c-1.322,0-2.504-1.145-3.339-2.941h-96.647c1.498-3.289,3.657-5.365,6.055-5.365h89.399l-0.043-0.863l0.021-0.441h-17.139
					c-1.396-1.524-2.985-2.426-4.693-2.426h-20.838c-0.17,0.771-0.951,1.36-1.901,1.36h-20.864l2.72-1.305l0.006-0.056h-58.529
					c1.653-2.516,3.703-4.022,5.944-4.022h113.789l-6.592-4.317h34.525l-0.156,0.459h50.088l-0.955-0.626h-3.058l1.528-1
					l-9.338-6.111h18.675l0.757-0.495h2.23l6.414-3.675h10.215l0.701-0.46h-34.381l-1.249,0.606h-1.451
					c-0.726,0-1.323,0.514-1.323,1.157l-3.519,1.69h-18.09c-0.734,0-1.323-0.515-1.323-1.139l1.93-0.938h9.775
					c0.726,0,1.323-0.515,1.323-1.139l0.49-0.239h-28.335l8.697,4.979h-3.95l-8.434-4.832h-10.356
					c0.657,0.671,1.067,1.528,1.067,2.479l-9.803,4.741h-48.03c-2.463,0-4.466,1.727-4.466,3.876l-6.247,3.015h-17.832
					c-2.462,0-4.457-1.727-4.457-3.858l10.132-4.905h-23.563l28.563-18.688h65.634l11.618,6.65h27.074
					c0.418-0.441,0.885-0.716,1.392-0.716h33.093l-0.432,0.202h3.041c0.569,0.313,1.074,0.919,1.451,1.763h-24.694
					c1.313,1.286,2.776,2.022,4.335,2.022h21.149l0.478-0.313h9.16l0.546,0.313h15.984l9.295-6.082h73.83l21.369,12.238
					l14.342,8.213h-4.447l-9.49-5.438h-11.941c0.845,1.437,1.606,3.251,2.258,5.383h-28.702l-9.755,5.586h62.904
					c-0.479-0.443-0.906-1.067-1.259-1.838h15.748c0.615,0.81,1.341,1.27,2.121,1.27h8.677l31.308-20.489h72.248l34.946,20.012
					h45.296c-0.394,1.29-0.829,2.456-1.286,3.546H1460.606z M1009.769,699.051h-16.128l-0.336,0.221h16.01L1009.769,699.051z
					 M1182.519,725.601h-9.005c-1.778,0-3.418,1.636-4.79,4.393h9.917C1180.293,729.994,1181.716,728.224,1182.519,725.601z
					 M1205.392,731.189h-58.451l-1.09,0.624h58.45L1205.392,731.189z M1190.042,731.813c-1.748-1.256-3.319-3.223-4.639-5.733
					h-1.564c-0.59,0.747-1.285,1.193-2.041,1.193h-19.953l-0.644,1.231h13.495c0.478,1.586,1.242,2.792,2.149,3.309H1190.042z
					 M1323.919,704.875l-0.57-0.368h0.754l0.569,0.368H1323.919z M1073.084,706.583h-40.075l0.377-0.236h39.266L1073.084,706.583z
					 M1229.234,721.119l-0.027-0.074h0.138L1229.234,721.119z"/>
			</g>
		</g>
	</g>
</g>
</svg>
